<svg width="203" height="122" viewBox="0 0 203 122" fill="none" xmlns="http://www.w3.org/2000/svg">
<path d="M0 20.25C0 9.08086 9.10328 0 20.3 0H182.7C193.897 0 203 9.08086 203 20.25V101.25C203 112.419 193.897 121.5 182.7 121.5H20.3C9.10328 121.5 0 112.419 0 101.25V20.25ZM101.5 20.25V101.25H182.7V20.25H101.5ZM56.5545 35.4059C55.5395 33.1277 53.2558 31.6406 50.75 31.6406C48.2442 31.6406 45.9605 33.1277 44.9455 35.4059L24.6455 80.9684C23.2181 84.1641 24.6772 87.8977 27.8808 89.3215C31.0844 90.7453 34.8272 89.2898 36.2545 86.0941L39.0775 79.7344H62.4225L65.2455 86.0941C66.6728 89.2898 70.4156 90.7137 73.6192 89.3215C76.8228 87.9293 78.2502 84.1641 76.8545 80.9684L56.5545 35.4059ZM50.75 53.5359L56.7766 67.0781H44.7234L50.75 53.5359Z" fill="black"/>
<path d="M117.89 67.1625C117.89 61.3562 120.038 56.8897 124.333 53.7632C128.627 50.5729 134.549 48.9777 142.098 48.9777C149.581 48.9777 155.438 50.5729 159.667 53.7632C163.962 56.8897 166.11 61.3562 166.11 67.1625V89.75H149.516V67.1625C149.516 64.9931 148.833 63.3342 147.466 62.1856C146.1 61.0371 144.278 60.4629 142 60.4629C139.788 60.4629 137.965 61.0371 136.534 62.1856C135.167 63.3342 134.484 64.9931 134.484 67.1625V89.75H117.89V67.1625ZM117.5 44.0008V31.75H166.5V44.0008H117.5Z" fill="black"/>
</svg>
